<?xml version="1.0" encoding="utf-8"?>
<!-- Generator: Adobe Illustrator 25.0.1, SVG Export Plug-In . SVG Version: 6.00 Build 0)  -->
<svg version="1.1" id="レイヤー_1" xmlns="http://www.w3.org/2000/svg" xmlns:xlink="http://www.w3.org/1999/xlink" x="0px"
	 y="0px" viewBox="0 0 50.3 30.1" style="enable-background:new 0 0 50.3 30.1;" xml:space="preserve">
<style type="text/css">
	.st0{fill:#6B6B6B;}
</style>
<g>
	<path class="st0" d="M12.7,1.4c-1.7,0-3.4,0.4-4.8,1.3C6.4,3.5,5.2,4.6,4.2,6c-2,2.7-2.9,5.9-2.9,9.1s0.9,6.4,2.9,9.1
		c1,1.3,2.2,2.5,3.7,3.3c1.5,0.9,3.1,1.3,4.8,1.3v1.4c-1.9,0-3.8-0.6-5.5-1.5c-1.6-0.9-3-2.2-4.1-3.7C1,22,0,18.5,0,15.1
		c0-3.5,1-7,3.1-9.9c1.1-1.5,2.5-2.8,4.1-3.7C8.9,0.6,10.8,0,12.7,0V1.4z M12.7,4.8c-1.2,0-2.2,0.3-3.2,0.8C8.5,6.2,7.7,7,6.9,8
		c-1.5,2-2.2,4.5-2.2,7.1s0.7,5.1,2.2,7.1c0.7,0.9,1.6,1.7,2.6,2.3c1,0.6,2.1,0.9,3.2,0.9v1.4c-1.3,0-2.6-0.3-3.8-1.1
		c-1.1-0.6-2.2-1.5-3-2.7c-1.6-2.3-2.5-5-2.5-7.9s0.8-5.6,2.5-7.9c0.9-1.2,1.9-2.1,3-2.7c1.2-0.7,2.5-1.1,3.8-1V4.8z"/>
	<path class="st0" d="M29.4,6.8c-0.8-1.2-2.1-2-3.4-2c-0.7,0-1.3,0.2-1.9,0.5s-1,0.8-1.2,1.3c-0.3,0.5-0.3,1.1-0.3,1.7
		c0.1,0.6,0.4,1.1,0.8,1.6c0.5,0.5,0.9,0.7,2,1.4c0.9,0.6,1.8,1.1,2.9,1.7c1,0.6,2,1.2,3,2.2c0.5,0.5,1,0.9,1.4,1.5s0.8,1.3,1.1,2
		c0.3,0.8,0.4,1.5,0.4,2.3c0,0.7,0,1.4-0.2,2.1c-0.2,1.5-0.8,2.9-1.8,4.1s-2.3,2-3.7,2.5c-1.4,0.5-2.9,0.6-4.3,0.3
		c-1.4-0.3-2.7-0.8-3.8-1.5c-1.1-0.7-2.1-1.5-2.9-2.6l1-0.9c0.8,0.9,1.7,1.7,2.6,2.3c1,0.6,2.2,1.1,3.4,1.3c1.2,0.2,2.5,0.2,3.7-0.3
		c1.2-0.4,2.3-1.1,3.1-2.1c0.9-1,1.4-2.2,1.5-3.4c0.2-1.2,0.2-2.5-0.2-3.7s-1.2-2.3-2.1-3.1s-1.8-1.4-2.8-2
		c-0.9-0.6-1.9-1.1-2.8-1.6L24.2,12c-0.6-0.3-1.1-0.8-1.6-1.2c-0.7-0.7-1.1-1.5-1.2-2.3c-0.2-0.9,0-1.7,0.4-2.5
		c0.4-0.9,1-1.5,1.8-1.9c0.8-0.5,1.6-0.7,2.6-0.7c1.8,0,3.7,1.1,4.5,2.6L29.4,6.8z M32.3,4.9c-0.2-0.3-0.4-0.5-0.6-0.8l-0.6-0.7
		c-0.5-0.5-1-0.8-1.5-1.1c-1.1-0.7-2.3-1-3.6-1c-0.6,0-1.2,0.1-1.8,0.2C23.6,1.8,23,2,22.4,2.3c-1.1,0.6-2,1.6-2.6,2.8
		S19,7.6,19.2,8.9c0.2,1.3,0.8,2.4,1.7,3.4c0.5,0.5,0.9,0.9,1.4,1.2c1.4,0.9,2.8,1.6,4.2,2.5c1.8,1.1,3.5,2.3,4,4
		c0.3,0.8,0.3,1.7,0.2,2.7c-0.2,0.9-0.5,1.7-1.1,2.4c-0.6,0.7-1.3,1.2-2.2,1.5c-0.9,0.3-1.8,0.3-2.7,0.2c-1.8-0.3-3.5-1.5-4.8-2.9
		l1-0.9c1.2,1.3,2.5,2.2,4,2.5s2.8-0.2,3.6-1.2c0.4-0.5,0.7-1.1,0.8-1.8c0.2-0.8,0.1-1.5-0.1-2s-0.6-1.1-1.2-1.6
		c-0.6-0.6-1.4-1.1-2.3-1.6c-2.1-1.2-4.3-2.2-6-3.9c-1-1.1-1.7-2.5-2-4.1c-0.3-1.5,0-3.2,0.7-4.6s1.7-2.5,3.1-3.3
		c0.7-0.4,1.4-0.7,2.1-0.9C24.6,0.2,25.3,0,26,0c1.5,0,3,0.5,4.3,1.2C30.9,1.6,31.5,2,32,2.5c0.7,0.6,1.1,1.2,1.4,1.7L32.3,4.9z"/>
	<path class="st0" d="M50.3,0c-0.2,0.6-0.4,1.2-4.5,15.4v3.3v11.4h-1.3v-12v-2.9v-0.3l-0.9-3.4l-1,3.4v0.3v4.5v10.5h-1.3v-13v-1.8
		l-0.1-0.3L37.4,2.2L36.8,0h1.3l0.5,1.8l3.2,10.9l1-3.8l-2.7-9h1.5L42,1l1.6,5.7l1.7-6.1L45.4,0h1.4c-0.1,0.3-0.2,0.6-2.5,9l1,3.8
		C48.7,1,48.7,0.5,48.9,0H50.3z"/>
</g>
</svg>
